# Tiled2Unity generated file. Do not modify by hand.
# Wavefront file for 'Level2_mesh_0003.obj'

# Vertices (Count = 472)
v -16.64 -5.12 0
v -17.92 -5.12 0
v -17.92 -3.84 0
v -16.64 -3.84 0
v -17.92 -5.12 0
v -19.2 -5.12 0
v -19.2 -3.84 0
v -17.92 -3.84 0
v -19.2 -5.12 0
v -20.48 -5.12 0
v -20.48 -3.84 0
v -19.2 -3.84 0
v -20.48 -5.12 0
v -21.76 -5.12 0
v -21.76 -3.84 0
v -20.48 -3.84 0
v -21.76 -5.12 0
v -23.04 -5.12 0
v -23.04 -3.84 0
v -21.76 -3.84 0
v -23.04 -5.12 0
v -24.32 -5.12 0
v -24.32 -3.84 0
v -23.04 -3.84 0
v -15.36 -6.4 0
v -16.64 -6.4 0
v -16.64 -5.12 0
v -15.36 -5.12 0
v -24.32 -6.4 0
v -25.6 -6.4 0
v -25.6 -5.12 0
v -24.32 -5.12 0
v -15.36 -7.68 0
v -16.64 -7.68 0
v -16.64 -6.4 0
v -15.36 -6.4 0
v -24.32 -7.68 0
v -25.6 -7.68 0
v -25.6 -6.4 0
v -24.32 -6.4 0
v -15.36 -8.96 0
v -16.64 -8.96 0
v -16.64 -7.68 0
v -15.36 -7.68 0
v -24.32 -8.96 0
v -25.6 -8.96 0
v -25.6 -7.68 0
v -24.32 -7.68 0
v -15.36 -10.24 0
v -16.64 -10.24 0
v -16.64 -8.96 0
v -15.36 -8.96 0
v -24.32 -10.24 0
v -25.6 -10.24 0
v -25.6 -8.96 0
v -24.32 -8.96 0
v -1.28 -11.52 0
v -2.56 -11.52 0
v -2.56 -10.24 0
v -1.28 -10.24 0
v -2.56 -11.52 0
v -3.84 -11.52 0
v -3.84 -10.24 0
v -2.56 -10.24 0
v -3.84 -11.52 0
v -5.12 -11.52 0
v -5.12 -10.24 0
v -3.84 -10.24 0
v -5.12 -11.52 0
v -6.4 -11.52 0
v -6.4 -10.24 0
v -5.12 -10.24 0
v -6.4 -11.52 0
v -7.68 -11.52 0
v -7.68 -10.24 0
v -6.4 -10.24 0
v -7.68 -11.52 0
v -8.96 -11.52 0
v -8.96 -10.24 0
v -7.68 -10.24 0
v -8.96 -11.52 0
v -10.24 -11.52 0
v -10.24 -10.24 0
v -8.96 -10.24 0
v -10.24 -11.52 0
v -11.52 -11.52 0
v -11.52 -10.24 0
v -10.24 -10.24 0
v -11.52 -11.52 0
v -12.8 -11.52 0
v -12.8 -10.24 0
v -11.52 -10.24 0
v -12.8 -11.52 0
v -14.08 -11.52 0
v -14.08 -10.24 0
v -12.8 -10.24 0
v -14.08 -11.52 0
v -15.36 -11.52 0
v -15.36 -10.24 0
v -14.08 -10.24 0
v -25.6 -11.52 0
v -26.88 -11.52 0
v -26.88 -10.24 0
v -25.6 -10.24 0
v -26.88 -11.52 0
v -28.16 -11.52 0
v -28.16 -10.24 0
v -26.88 -10.24 0
v -28.16 -11.52 0
v -29.44 -11.52 0
v -29.44 -10.24 0
v -28.16 -10.24 0
v -29.44 -11.52 0
v -30.72 -11.52 0
v -30.72 -10.24 0
v -29.44 -10.24 0
v -30.72 -11.52 0
v -32 -11.52 0
v -32 -10.24 0
v -30.72 -10.24 0
v -32 -11.52 0
v -33.28 -11.52 0
v -33.28 -10.24 0
v -32 -10.24 0
v -33.28 -11.52 0
v -34.56 -11.52 0
v -34.56 -10.24 0
v -33.28 -10.24 0
v -34.56 -11.52 0
v -35.84 -11.52 0
v -35.84 -10.24 0
v -34.56 -10.24 0
v -35.84 -11.52 0
v -37.12 -11.52 0
v -37.12 -10.24 0
v -35.84 -10.24 0
v -37.12 -11.52 0
v -38.4 -11.52 0
v -38.4 -10.24 0
v -37.12 -10.24 0
v -38.4 -11.52 0
v -39.68 -11.52 0
v -39.68 -10.24 0
v -38.4 -10.24 0
v -39.68 -11.52 0
v -40.96 -11.52 0
v -40.96 -10.24 0
v -39.68 -10.24 0
v -40.96 -11.52 0
v -42.24 -11.52 0
v -42.24 -10.24 0
v -40.96 -10.24 0
v -42.24 -11.52 0
v -43.52 -11.52 0
v -43.52 -10.24 0
v -42.24 -10.24 0
v -43.52 -11.52 0
v -44.8 -11.52 0
v -44.8 -10.24 0
v -43.52 -10.24 0
v 0 -12.8 0
v -1.28 -12.8 0
v -1.28 -11.52 0
v 0 -11.52 0
v -44.8 -12.8 0
v -46.08 -12.8 0
v -46.08 -11.52 0
v -44.8 -11.52 0
v 0 -14.08 0
v -1.28 -14.08 0
v -1.28 -12.8 0
v 0 -12.8 0
v -44.8 -14.08 0
v -46.08 -14.08 0
v -46.08 -12.8 0
v -44.8 -12.8 0
v 0 -15.36 0
v -1.28 -15.36 0
v -1.28 -14.08 0
v 0 -14.08 0
v -44.8 -15.36 0
v -46.08 -15.36 0
v -46.08 -14.08 0
v -44.8 -14.08 0
v 0 -16.64 0
v -1.28 -16.64 0
v -1.28 -15.36 0
v 0 -15.36 0
v -44.8 -16.64 0
v -46.08 -16.64 0
v -46.08 -15.36 0
v -44.8 -15.36 0
v 0 -17.92 0
v -1.28 -17.92 0
v -1.28 -16.64 0
v 0 -16.64 0
v -44.8 -17.92 0
v -46.08 -17.92 0
v -46.08 -16.64 0
v -44.8 -16.64 0
v 0 -19.2 0
v -1.28 -19.2 0
v -1.28 -17.92 0
v 0 -17.92 0
v -44.8 -19.2 0
v -46.08 -19.2 0
v -46.08 -17.92 0
v -44.8 -17.92 0
v 0 -20.48 0
v -1.28 -20.48 0
v -1.28 -19.2 0
v 0 -19.2 0
v -44.8 -20.48 0
v -46.08 -20.48 0
v -46.08 -19.2 0
v -44.8 -19.2 0
v 0 -21.76 0
v -1.28 -21.76 0
v -1.28 -20.48 0
v 0 -20.48 0
v -44.8 -21.76 0
v -46.08 -21.76 0
v -46.08 -20.48 0
v -44.8 -20.48 0
v 0 -23.04 0
v -1.28 -23.04 0
v -1.28 -21.76 0
v 0 -21.76 0
v -44.8 -23.04 0
v -46.08 -23.04 0
v -46.08 -21.76 0
v -44.8 -21.76 0
v 0 -24.32 0
v -1.28 -24.32 0
v -1.28 -23.04 0
v 0 -23.04 0
v -44.8 -24.32 0
v -46.08 -24.32 0
v -46.08 -23.04 0
v -44.8 -23.04 0
v 0 -25.6 0
v -1.28 -25.6 0
v -1.28 -24.32 0
v 0 -24.32 0
v -44.8 -25.6 0
v -46.08 -25.6 0
v -46.08 -24.32 0
v -44.8 -24.32 0
v 0 -26.88 0
v -1.28 -26.88 0
v -1.28 -25.6 0
v 0 -25.6 0
v -44.8 -26.88 0
v -46.08 -26.88 0
v -46.08 -25.6 0
v -44.8 -25.6 0
v -1.28 -28.16 0
v -2.56 -28.16 0
v -2.56 -26.88 0
v -1.28 -26.88 0
v -2.56 -28.16 0
v -3.84 -28.16 0
v -3.84 -26.88 0
v -2.56 -26.88 0
v -3.84 -28.16 0
v -5.12 -28.16 0
v -5.12 -26.88 0
v -3.84 -26.88 0
v -5.12 -28.16 0
v -6.4 -28.16 0
v -6.4 -26.88 0
v -5.12 -26.88 0
v -6.4 -28.16 0
v -7.68 -28.16 0
v -7.68 -26.88 0
v -6.4 -26.88 0
v -7.68 -28.16 0
v -8.96 -28.16 0
v -8.96 -26.88 0
v -7.68 -26.88 0
v -8.96 -28.16 0
v -10.24 -28.16 0
v -10.24 -26.88 0
v -8.96 -26.88 0
v -10.24 -28.16 0
v -11.52 -28.16 0
v -11.52 -26.88 0
v -10.24 -26.88 0
v -11.52 -28.16 0
v -12.8 -28.16 0
v -12.8 -26.88 0
v -11.52 -26.88 0
v -12.8 -28.16 0
v -14.08 -28.16 0
v -14.08 -26.88 0
v -12.8 -26.88 0
v -14.08 -28.16 0
v -15.36 -28.16 0
v -15.36 -26.88 0
v -14.08 -26.88 0
v -15.36 -28.16 0
v -16.64 -28.16 0
v -16.64 -26.88 0
v -15.36 -26.88 0
v -16.64 -28.16 0
v -17.92 -28.16 0
v -17.92 -26.88 0
v -16.64 -26.88 0
v -17.92 -28.16 0
v -19.2 -28.16 0
v -19.2 -26.88 0
v -17.92 -26.88 0
v -19.2 -28.16 0
v -20.48 -28.16 0
v -20.48 -26.88 0
v -19.2 -26.88 0
v -20.48 -28.16 0
v -21.76 -28.16 0
v -21.76 -26.88 0
v -20.48 -26.88 0
v -21.76 -28.16 0
v -23.04 -28.16 0
v -23.04 -26.88 0
v -21.76 -26.88 0
v -23.04 -28.16 0
v -24.32 -28.16 0
v -24.32 -26.88 0
v -23.04 -26.88 0
v -24.32 -28.16 0
v -25.6 -28.16 0
v -25.6 -26.88 0
v -24.32 -26.88 0
v -25.6 -28.16 0
v -26.88 -28.16 0
v -26.88 -26.88 0
v -25.6 -26.88 0
v -26.88 -28.16 0
v -28.16 -28.16 0
v -28.16 -26.88 0
v -26.88 -26.88 0
v -28.16 -28.16 0
v -29.44 -28.16 0
v -29.44 -26.88 0
v -28.16 -26.88 0
v -29.44 -28.16 0
v -30.72 -28.16 0
v -30.72 -26.88 0
v -29.44 -26.88 0
v -30.72 -28.16 0
v -32 -28.16 0
v -32 -26.88 0
v -30.72 -26.88 0
v -44.8 -28.16 0
v -46.08 -28.16 0
v -46.08 -26.88 0
v -44.8 -26.88 0
v -32 -29.44 0
v -33.28 -29.44 0
v -33.28 -28.16 0
v -32 -28.16 0
v -44.8 -29.44 0
v -46.08 -29.44 0
v -46.08 -28.16 0
v -44.8 -28.16 0
v -32 -30.72 0
v -33.28 -30.72 0
v -33.28 -29.44 0
v -32 -29.44 0
v -44.8 -30.72 0
v -46.08 -30.72 0
v -46.08 -29.44 0
v -44.8 -29.44 0
v -32 -32 0
v -33.28 -32 0
v -33.28 -30.72 0
v -32 -30.72 0
v -44.8 -32 0
v -46.08 -32 0
v -46.08 -30.72 0
v -44.8 -30.72 0
v -32 -33.28 0
v -33.28 -33.28 0
v -33.28 -32 0
v -32 -32 0
v -44.8 -33.28 0
v -46.08 -33.28 0
v -46.08 -32 0
v -44.8 -32 0
v -32 -34.56 0
v -33.28 -34.56 0
v -33.28 -33.28 0
v -32 -33.28 0
v -44.8 -34.56 0
v -46.08 -34.56 0
v -46.08 -33.28 0
v -44.8 -33.28 0
v -32 -35.84 0
v -33.28 -35.84 0
v -33.28 -34.56 0
v -32 -34.56 0
v -44.8 -35.84 0
v -46.08 -35.84 0
v -46.08 -34.56 0
v -44.8 -34.56 0
v -32 -37.12 0
v -33.28 -37.12 0
v -33.28 -35.84 0
v -32 -35.84 0
v -44.8 -37.12 0
v -46.08 -37.12 0
v -46.08 -35.84 0
v -44.8 -35.84 0
v -32 -38.4 0
v -33.28 -38.4 0
v -33.28 -37.12 0
v -32 -37.12 0
v -44.8 -38.4 0
v -46.08 -38.4 0
v -46.08 -37.12 0
v -44.8 -37.12 0
v -32 -39.68 0
v -33.28 -39.68 0
v -33.28 -38.4 0
v -32 -38.4 0
v -44.8 -39.68 0
v -46.08 -39.68 0
v -46.08 -38.4 0
v -44.8 -38.4 0
v -32 -40.96 0
v -33.28 -40.96 0
v -33.28 -39.68 0
v -32 -39.68 0
v -44.8 -40.96 0
v -46.08 -40.96 0
v -46.08 -39.68 0
v -44.8 -39.68 0
v -33.28 -42.24 0
v -34.56 -42.24 0
v -34.56 -40.96 0
v -33.28 -40.96 0
v -34.56 -42.24 0
v -35.84 -42.24 0
v -35.84 -40.96 0
v -34.56 -40.96 0
v -35.84 -42.24 0
v -37.12 -42.24 0
v -37.12 -40.96 0
v -35.84 -40.96 0
v -37.12 -42.24 0
v -38.4 -42.24 0
v -38.4 -40.96 0
v -37.12 -40.96 0
v -38.4 -42.24 0
v -39.68 -42.24 0
v -39.68 -40.96 0
v -38.4 -40.96 0
v -39.68 -42.24 0
v -40.96 -42.24 0
v -40.96 -40.96 0
v -39.68 -40.96 0
v -40.96 -42.24 0
v -42.24 -42.24 0
v -42.24 -40.96 0
v -40.96 -40.96 0
v -42.24 -42.24 0
v -43.52 -42.24 0
v -43.52 -40.96 0
v -42.24 -40.96 0
v -43.52 -42.24 0
v -44.8 -42.24 0
v -44.8 -40.96 0
v -43.52 -40.96 0

# Texture cooridinates (Count = 4)
vt 0 1
vt 0 0
vt 1 0
vt 1 1

# Normal
vn 0 0 -1

# Mesh description
g Level2_mesh_0003

# Faces
f 1/1/1 2/2/1 3/3/1 4/4/1
f 5/1/1 6/2/1 7/3/1 8/4/1
f 9/1/1 10/2/1 11/3/1 12/4/1
f 13/1/1 14/2/1 15/3/1 16/4/1
f 17/1/1 18/2/1 19/3/1 20/4/1
f 21/1/1 22/2/1 23/3/1 24/4/1
f 25/2/1 26/3/1 27/4/1 28/1/1
f 29/4/1 30/1/1 31/2/1 32/3/1
f 33/2/1 34/3/1 35/4/1 36/1/1
f 37/4/1 38/1/1 39/2/1 40/3/1
f 41/2/1 42/3/1 43/4/1 44/1/1
f 45/4/1 46/1/1 47/2/1 48/3/1
f 49/2/1 50/3/1 51/4/1 52/1/1
f 53/4/1 54/1/1 55/2/1 56/3/1
f 57/2/1 58/1/1 59/4/1 60/3/1
f 61/2/1 62/1/1 63/4/1 64/3/1
f 65/2/1 66/1/1 67/4/1 68/3/1
f 69/2/1 70/1/1 71/4/1 72/3/1
f 73/2/1 74/1/1 75/4/1 76/3/1
f 77/2/1 78/1/1 79/4/1 80/3/1
f 81/2/1 82/1/1 83/4/1 84/3/1
f 85/2/1 86/1/1 87/4/1 88/3/1
f 89/2/1 90/1/1 91/4/1 92/3/1
f 93/2/1 94/1/1 95/4/1 96/3/1
f 97/2/1 98/1/1 99/4/1 100/3/1
f 101/2/1 102/1/1 103/4/1 104/3/1
f 105/2/1 106/1/1 107/4/1 108/3/1
f 109/2/1 110/1/1 111/4/1 112/3/1
f 113/2/1 114/1/1 115/4/1 116/3/1
f 117/2/1 118/1/1 119/4/1 120/3/1
f 121/2/1 122/1/1 123/4/1 124/3/1
f 125/2/1 126/1/1 127/4/1 128/3/1
f 129/2/1 130/1/1 131/4/1 132/3/1
f 133/2/1 134/1/1 135/4/1 136/3/1
f 137/2/1 138/1/1 139/4/1 140/3/1
f 141/2/1 142/1/1 143/4/1 144/3/1
f 145/2/1 146/1/1 147/4/1 148/3/1
f 149/2/1 150/1/1 151/4/1 152/3/1
f 153/2/1 154/1/1 155/4/1 156/3/1
f 157/2/1 158/1/1 159/4/1 160/3/1
f 161/2/1 162/3/1 163/4/1 164/1/1
f 165/3/1 166/2/1 167/1/1 168/4/1
f 169/2/1 170/3/1 171/4/1 172/1/1
f 173/3/1 174/2/1 175/1/1 176/4/1
f 177/2/1 178/3/1 179/4/1 180/1/1
f 181/3/1 182/2/1 183/1/1 184/4/1
f 185/2/1 186/3/1 187/4/1 188/1/1
f 189/3/1 190/2/1 191/1/1 192/4/1
f 193/2/1 194/3/1 195/4/1 196/1/1
f 197/3/1 198/2/1 199/1/1 200/4/1
f 201/2/1 202/3/1 203/4/1 204/1/1
f 205/3/1 206/2/1 207/1/1 208/4/1
f 209/2/1 210/3/1 211/4/1 212/1/1
f 213/3/1 214/2/1 215/1/1 216/4/1
f 217/2/1 218/3/1 219/4/1 220/1/1
f 221/3/1 222/2/1 223/1/1 224/4/1
f 225/2/1 226/3/1 227/4/1 228/1/1
f 229/3/1 230/2/1 231/1/1 232/4/1
f 233/2/1 234/3/1 235/4/1 236/1/1
f 237/3/1 238/2/1 239/1/1 240/4/1
f 241/2/1 242/3/1 243/4/1 244/1/1
f 245/3/1 246/2/1 247/1/1 248/4/1
f 249/2/1 250/3/1 251/4/1 252/1/1
f 253/3/1 254/2/1 255/1/1 256/4/1
f 257/3/1 258/4/1 259/1/1 260/2/1
f 261/3/1 262/4/1 263/1/1 264/2/1
f 265/3/1 266/4/1 267/1/1 268/2/1
f 269/3/1 270/4/1 271/1/1 272/2/1
f 273/3/1 274/4/1 275/1/1 276/2/1
f 277/3/1 278/4/1 279/1/1 280/2/1
f 281/3/1 282/4/1 283/1/1 284/2/1
f 285/3/1 286/4/1 287/1/1 288/2/1
f 289/3/1 290/4/1 291/1/1 292/2/1
f 293/3/1 294/4/1 295/1/1 296/2/1
f 297/3/1 298/4/1 299/1/1 300/2/1
f 301/3/1 302/4/1 303/1/1 304/2/1
f 305/3/1 306/4/1 307/1/1 308/2/1
f 309/3/1 310/4/1 311/1/1 312/2/1
f 313/3/1 314/4/1 315/1/1 316/2/1
f 317/3/1 318/4/1 319/1/1 320/2/1
f 321/3/1 322/4/1 323/1/1 324/2/1
f 325/3/1 326/4/1 327/1/1 328/2/1
f 329/3/1 330/4/1 331/1/1 332/2/1
f 333/3/1 334/4/1 335/1/1 336/2/1
f 337/3/1 338/4/1 339/1/1 340/2/1
f 341/3/1 342/4/1 343/1/1 344/2/1
f 345/3/1 346/4/1 347/1/1 348/2/1
f 349/3/1 350/4/1 351/1/1 352/2/1
f 353/3/1 354/2/1 355/1/1 356/4/1
f 357/2/1 358/3/1 359/4/1 360/1/1
f 361/3/1 362/2/1 363/1/1 364/4/1
f 365/2/1 366/3/1 367/4/1 368/1/1
f 369/3/1 370/2/1 371/1/1 372/4/1
f 373/2/1 374/3/1 375/4/1 376/1/1
f 377/3/1 378/2/1 379/1/1 380/4/1
f 381/2/1 382/3/1 383/4/1 384/1/1
f 385/3/1 386/2/1 387/1/1 388/4/1
f 389/2/1 390/3/1 391/4/1 392/1/1
f 393/3/1 394/2/1 395/1/1 396/4/1
f 397/2/1 398/3/1 399/4/1 400/1/1
f 401/3/1 402/2/1 403/1/1 404/4/1
f 405/2/1 406/3/1 407/4/1 408/1/1
f 409/3/1 410/2/1 411/1/1 412/4/1
f 413/2/1 414/3/1 415/4/1 416/1/1
f 417/3/1 418/2/1 419/1/1 420/4/1
f 421/2/1 422/3/1 423/4/1 424/1/1
f 425/3/1 426/2/1 427/1/1 428/4/1
f 429/2/1 430/3/1 431/4/1 432/1/1
f 433/3/1 434/2/1 435/1/1 436/4/1
f 437/3/1 438/4/1 439/1/1 440/2/1
f 441/3/1 442/4/1 443/1/1 444/2/1
f 445/3/1 446/4/1 447/1/1 448/2/1
f 449/3/1 450/4/1 451/1/1 452/2/1
f 453/3/1 454/4/1 455/1/1 456/2/1
f 457/3/1 458/4/1 459/1/1 460/2/1
f 461/3/1 462/4/1 463/1/1 464/2/1
f 465/3/1 466/4/1 467/1/1 468/2/1
f 469/3/1 470/4/1 471/1/1 472/2/1

