# Tiled2Unity generated file. Do not modify by hand.
# Wavefront file for 'Level1_mesh_0011.obj'

# Vertices (Count = 16)
v -29.44 -42.24 0
v -30.08 -42.24 0
v -30.08 -41.49 0
v -29.44 -41.49 0
v -39.68 -42.24 0
v -40.32 -42.24 0
v -40.32 -41.49 0
v -39.68 -41.49 0
v -60.16 -42.24 0
v -60.8 -42.24 0
v -60.8 -41.49 0
v -60.16 -41.49 0
v -75.52 -42.24 0
v -76.16 -42.24 0
v -76.16 -41.49 0
v -75.52 -41.49 0

# Texture cooridinates (Count = 4)
vt 0 0
vt 1 0
vt 1 1
vt 0 1

# Normal
vn 0 0 -1

# Mesh description
g Level1_mesh_0011

# Faces
f 1/1/1 2/2/1 3/3/1 4/4/1
f 5/1/1 6/2/1 7/3/1 8/4/1
f 9/1/1 10/2/1 11/3/1 12/4/1
f 13/1/1 14/2/1 15/3/1 16/4/1

