# Tiled2Unity generated file. Do not modify by hand.
# Wavefront file for 'Level1_mesh_0012.obj'

# Vertices (Count = 20)
v -30.72 -42.24 0
v -31.29 -42.24 0
v -31.29 -41.65 0
v -30.72 -41.65 0
v -35.84 -42.24 0
v -36.41 -42.24 0
v -36.41 -41.65 0
v -35.84 -41.65 0
v -53.76 -42.24 0
v -54.33 -42.24 0
v -54.33 -41.65 0
v -53.76 -41.65 0
v -69.12 -42.24 0
v -69.68999 -42.24 0
v -69.68999 -41.65 0
v -69.12 -41.65 0
v -76.8 -42.24 0
v -77.37 -42.24 0
v -77.37 -41.65 0
v -76.8 -41.65 0

# Texture cooridinates (Count = 4)
vt 0 0
vt 1 0
vt 1 1
vt 0 1

# Normal
vn 0 0 -1

# Mesh description
g Level1_mesh_0012

# Faces
f 1/1/1 2/2/1 3/3/1 4/4/1
f 5/1/1 6/2/1 7/3/1 8/4/1
f 9/1/1 10/2/1 11/3/1 12/4/1
f 13/1/1 14/2/1 15/3/1 16/4/1
f 17/1/1 18/2/1 19/3/1 20/4/1

