# Tiled2Unity generated file. Do not modify by hand.
# Wavefront file for 'Level1_mesh_0003.obj'

# Vertices (Count = 24)
v -65.28 -10.24 0
v -66.56 -10.24 0
v -66.56 -8.96 0
v -65.28 -8.96 0
v -79.36 -10.24 0
v -80.64 -10.24 0
v -80.64 -8.96 0
v -79.36 -8.96 0
v -25.6 -23.04 0
v -26.88 -23.04 0
v -26.88 -21.76 0
v -25.6 -21.76 0
v -65.28 -23.04 0
v -66.56 -23.04 0
v -66.56 -21.76 0
v -65.28 -21.76 0
v -25.6 -43.52 0
v -26.88 -43.52 0
v -26.88 -42.24 0
v -25.6 -42.24 0
v -79.36 -43.52 0
v -80.64 -43.52 0
v -80.64 -42.24 0
v -79.36 -42.24 0

# Texture cooridinates (Count = 4)
vt 0 0
vt 1 0
vt 1 1
vt 0 1

# Normal
vn 0 0 -1

# Mesh description
g Level1_mesh_0003

# Faces
f 1/1/1 2/2/1 3/3/1 4/4/1
f 5/2/1 6/1/1 7/4/1 8/3/1
f 9/1/1 10/2/1 11/3/1 12/4/1
f 13/1/1 14/4/1 15/3/1 16/2/1
f 17/4/1 18/3/1 19/2/1 20/1/1
f 21/3/1 22/4/1 23/1/1 24/2/1

