# Tiled2Unity generated file. Do not modify by hand.
# Wavefront file for 'Level1_mesh_0010.obj'

# Vertices (Count = 24)
v -67.84 -14.08 0
v -68.68 -14.08 0
v -68.68 -13.18 0
v -67.84 -13.18 0
v -74.24 -21.76 0
v -75.08 -21.76 0
v -75.08 -20.86 0
v -74.24 -20.86 0
v -40.96 -28.16 0
v -41.8 -28.16 0
v -41.8 -27.26 0
v -40.96 -27.26 0
v -69.12 -29.44 0
v -69.96 -29.44 0
v -69.96 -28.54 0
v -69.12 -28.54 0
v -32 -34.56 0
v -32.84 -34.56 0
v -32.84 -33.66 0
v -32 -33.66 0
v -61.44 -37.12 0
v -62.28 -37.12 0
v -62.28 -36.22 0
v -61.44 -36.22 0

# Texture cooridinates (Count = 4)
vt 0 0
vt 1 0
vt 1 1
vt 0 1

# Normal
vn 0 0 -1

# Mesh description
g Level1_mesh_0010

# Faces
f 1/1/1 2/2/1 3/3/1 4/4/1
f 5/1/1 6/2/1 7/3/1 8/4/1
f 9/1/1 10/2/1 11/3/1 12/4/1
f 13/1/1 14/2/1 15/3/1 16/4/1
f 17/1/1 18/2/1 19/3/1 20/4/1
f 21/1/1 22/2/1 23/3/1 24/4/1

